<svg width="444.1" height="116.2" viewBox="0 0 444.1 116.2" xmlns="http://www.w3.org/2000/svg"><g id="svgGroup" stroke-linecap="round" fill-rule="evenodd" font-size="9pt" stroke="#ffffff" stroke-width="0.25mm" fill="#ffffff" style="stroke:#ffffff;stroke-width:0.25mm;fill:#ffffff"><path d="M 6.8 67.2 L 7.7 67.9 A 25.609 25.609 0 0 0 3.643 75.435 A 22.709 22.709 0 0 0 2.5 82.6 Q 2.5 92 10.4 97.2 Q 15 100.3 20.85 100.3 A 25.093 25.093 0 0 0 25.833 99.828 A 18.794 18.794 0 0 0 31 98 A 16.083 16.083 0 0 0 39.547 87.135 A 22.922 22.922 0 0 0 40.1 83.9 Q 40.2 83.2 40.2 82.5 Q 40.2 79.147 38.516 75.301 A 27.333 27.333 0 0 0 38.15 74.5 A 19.639 19.639 0 0 0 35.037 69.884 A 27.101 27.101 0 0 0 31.5 66.6 L 13.5 52.4 A 15.669 15.669 0 0 1 9.467 47.858 Q 7.602 44.609 7.6 40.508 A 16.075 16.075 0 0 1 7.6 40.5 A 18.752 18.752 0 0 1 8.812 33.666 A 17.143 17.143 0 0 1 12.3 28.15 A 15.554 15.554 0 0 1 21.601 23.35 A 22.215 22.215 0 0 1 25 23.1 Q 27.233 23.1 29.683 23.412 A 49.039 49.039 0 0 1 33.7 24.1 L 37.7 24.1 L 37.9 36.4 L 36.9 36.4 A 11.286 11.286 0 0 0 36.326 32.963 A 9.013 9.013 0 0 0 33.45 28.85 A 11.963 11.963 0 0 0 27.649 26.3 A 16.298 16.298 0 0 0 25.05 26.1 A 12.533 12.533 0 0 0 20.545 26.886 A 11.349 11.349 0 0 0 16.6 29.45 Q 13.2 32.8 13.2 38.05 Q 13.2 43.3 17.6 46.8 L 36.1 61.4 Q 47.1 70.1 47.1 82.4 A 20.348 20.348 0 0 1 40.684 97.365 A 27.425 27.425 0 0 1 39.8 98.2 A 21.388 21.388 0 0 1 30.004 103.164 A 31.507 31.507 0 0 1 23 103.9 A 29.198 29.198 0 0 1 16.772 103.262 A 23.441 23.441 0 0 1 11.6 101.5 A 18.998 18.998 0 0 1 1.006 89.435 A 24.96 24.96 0 0 1 0.3 86.5 A 15.148 15.148 0 0 1 0.12 85.21 Q 0.053 84.53 0.023 83.741 A 34.521 34.521 0 0 1 0 82.45 A 11.926 11.926 0 0 1 0.133 80.766 Q 0.39 78.983 1.139 76.565 A 48.645 48.645 0 0 1 1.4 75.75 Q 2.614 72.064 5.783 68.341 A 34.703 34.703 0 0 1 6.8 67.2 Z" id="0" vector-effect="non-scaling-stroke"/><path d="M 123.6 93.5 L 124.8 93.5 L 124.8 94.5 L 103 94.5 L 103 93.5 L 104.3 93.5 Q 106.8 93.5 108.65 91.75 Q 110.5 90 110.7 87.4 L 110.7 61.4 L 72 61.4 L 72 87.5 Q 72 100.047 66.539 105.204 A 12.166 12.166 0 0 1 65.2 106.3 Q 62.1 108.5 57.2 109.6 L 56.7 108.7 A 14.508 14.508 0 0 0 63.108 101.839 A 18.198 18.198 0 0 0 63.35 101.3 A 22.015 22.015 0 0 0 64.574 97.413 Q 65.486 93.34 65.5 87.68 A 71.578 71.578 0 0 0 65.5 87.5 L 65.5 31.7 A 5.811 5.811 0 0 0 63.731 27.428 A 7.14 7.14 0 0 0 63.6 27.3 Q 61.7 25.5 59.1 25.5 L 57.9 25.5 L 57.9 24.5 L 79.7 24.5 L 79.7 25.5 L 78.4 25.5 Q 75.8 25.5 73.95 27.3 Q 72.1 29.1 72 31.7 L 72 58.4 L 110.7 58.4 L 110.7 33.5 Q 110.8 20.7 116.4 15.7 Q 119.8 12.7 125.6 11.4 L 126.1 12.3 A 14.725 14.725 0 0 0 119.685 19.084 A 18.473 18.473 0 0 0 119.4 19.7 Q 117.223 24.649 117.2 33.32 A 69.968 69.968 0 0 0 117.2 33.5 L 117.2 87.2 A 6.059 6.059 0 0 0 118.993 91.592 A 7.395 7.395 0 0 0 119.05 91.65 A 6.172 6.172 0 0 0 123.516 93.5 A 7.824 7.824 0 0 0 123.6 93.5 Z" id="1" vector-effect="non-scaling-stroke"/><path d="M 164.1 93.5 L 165.4 93.5 L 165.4 94.5 L 143.5 94.5 L 143.5 93.5 L 144.8 93.5 Q 147.4 93.5 149.3 91.65 A 6.204 6.204 0 0 0 150.823 89.367 A 6.145 6.145 0 0 0 151.2 87.2 L 151.2 27.2 L 140.5 27.8 Q 130.4 28.4 130.4 35.1 Q 130.4 37.8 132.15 39.7 A 5.713 5.713 0 0 0 134.22 41.099 Q 135.079 41.452 136.145 41.633 A 13.558 13.558 0 0 0 137.7 41.8 L 137.7 42.4 Q 136.3 42.7 134.9 42.7 A 8.711 8.711 0 0 1 132.036 42.253 Q 129.723 41.452 128.311 39.218 A 9.125 9.125 0 0 1 128.3 39.2 Q 127 37.2 127 34.8 Q 127 26.3 139.9 24.9 Q 139.987 24.9 147.451 24.408 A 24218.738 24218.738 0 0 0 149.85 24.25 Q 158.986 23.647 164.552 22.657 A 59.077 59.077 0 0 0 165.4 22.5 L 165.6 23.5 Q 161.3 24.2 159.5 26.4 Q 157.981 28.256 157.744 31.323 A 15.265 15.265 0 0 0 157.7 32.5 L 157.7 87.2 Q 157.8 89.8 159.65 91.65 A 6.06 6.06 0 0 0 164.019 93.5 A 7.26 7.26 0 0 0 164.1 93.5 Z" id="2" vector-effect="non-scaling-stroke"/><path d="M 268.1 0 L 268.1 1 A 26.728 26.728 0 0 0 260.465 2.415 A 24.941 24.941 0 0 0 259.3 2.85 Q 255.638 4.324 253.133 6.196 A 18.593 18.593 0 0 0 252.55 6.65 A 23.332 23.332 0 0 0 250.018 9.061 Q 248.855 10.337 247.723 11.898 A 39.651 39.651 0 0 0 247.4 12.35 A 93.175 93.175 0 0 0 245.817 14.667 Q 245.127 15.713 244.56 16.646 A 40.178 40.178 0 0 0 243.55 18.4 Q 242.267 20.775 240.578 24.415 A 202.022 202.022 0 0 0 240.4 24.8 L 212.6 85.6 A 138.172 138.172 0 0 0 211.343 88.43 Q 209.531 92.645 209.063 94.717 A 5.601 5.601 0 0 0 208.9 95.9 L 208 95.9 L 179.9 31.8 A 12.483 12.483 0 0 0 178.532 29.394 A 9.154 9.154 0 0 0 176.05 27.05 Q 173.6 25.5 171.1 25.5 L 170.3 25.5 L 170.3 24.5 L 192.8 24.5 L 192.8 25.5 L 191.9 25.5 Q 188.9 25.5 187.9 28.3 Q 187.713 28.862 187.701 29.601 A 6.252 6.252 0 0 0 187.7 29.7 A 3.327 3.327 0 0 0 187.759 30.297 Q 187.872 30.913 188.2 31.7 L 209.1 84.1 L 233.9 24.8 A 63.339 63.339 0 0 1 238.311 16.177 Q 242.859 8.837 248.7 4.9 A 24.623 24.623 0 0 1 253.163 2.535 A 32.138 32.138 0 0 1 256.8 1.3 A 50.013 50.013 0 0 1 259.562 0.614 Q 262.156 0.054 264.043 0.005 A 13.683 13.683 0 0 1 264.4 0 L 268.1 0 Z" id="3" vector-effect="non-scaling-stroke"/><path d="M 279.2 93.5 L 280.5 93.5 L 280.5 94.5 L 258.6 94.5 L 258.6 93.5 L 259.9 93.5 Q 262.5 93.5 264.4 91.65 A 6.204 6.204 0 0 0 265.923 89.367 A 6.145 6.145 0 0 0 266.3 87.2 L 266.3 27.2 L 255.6 27.8 Q 245.5 28.4 245.5 35.1 Q 245.5 37.8 247.25 39.7 A 5.713 5.713 0 0 0 249.32 41.099 Q 250.179 41.452 251.245 41.633 A 13.558 13.558 0 0 0 252.8 41.8 L 252.8 42.4 Q 251.4 42.7 250 42.7 A 8.711 8.711 0 0 1 247.136 42.253 Q 244.823 41.452 243.411 39.218 A 9.125 9.125 0 0 1 243.4 39.2 Q 242.1 37.2 242.1 34.8 Q 242.1 26.3 255 24.9 Q 255.087 24.9 262.551 24.408 A 24218.738 24218.738 0 0 0 264.95 24.25 Q 274.086 23.647 279.652 22.657 A 59.077 59.077 0 0 0 280.5 22.5 L 280.7 23.5 Q 276.4 24.2 274.6 26.4 Q 273.081 28.256 272.844 31.323 A 15.265 15.265 0 0 0 272.8 32.5 L 272.8 87.2 Q 272.9 89.8 274.75 91.65 A 6.06 6.06 0 0 0 279.119 93.5 A 7.26 7.26 0 0 0 279.2 93.5 Z" id="4" vector-effect="non-scaling-stroke"/><path d="M 379.2 110.5 L 379.2 111.5 Q 375.701 112.416 372.862 112.569 A 20.67 20.67 0 0 1 371.75 112.6 A 45.245 45.245 0 0 1 369.05 112.523 Q 367.714 112.443 366.536 112.28 A 26.042 26.042 0 0 1 366 112.2 A 21.737 21.737 0 0 1 363.245 111.563 A 29.127 29.127 0 0 1 360.65 110.65 Q 357.8 109.5 355.3 108 A 31.928 31.928 0 0 1 352.175 105.852 A 39.053 39.053 0 0 1 350.3 104.3 Q 345.7 100.6 341.95 96.3 A 416.045 416.045 0 0 0 339.81 93.87 Q 335.692 89.223 327.5 80.15 A 25351.7 25351.7 0 0 1 323.163 75.346 Q 317.705 69.298 314.823 66.095 A 1877.871 1877.871 0 0 1 313.3 64.4 Q 310.092 60.826 308.229 60.359 A 2.381 2.381 0 0 0 307.9 60.3 L 307.9 59.3 A 214.339 214.339 0 0 0 310.253 59.288 Q 314.127 59.245 315.65 59.05 Q 317.6 58.8 319.8 58.15 A 14.184 14.184 0 0 0 321.707 57.443 A 10.289 10.289 0 0 0 323.5 56.4 A 12.304 12.304 0 0 0 328.88 48.584 A 20.55 20.55 0 0 0 329.4 43.8 A 26.697 26.697 0 0 0 328.998 39.026 Q 328.512 36.353 327.437 34.206 A 14.329 14.329 0 0 0 326.15 32.1 A 10.699 10.699 0 0 0 318.434 27.692 A 14.809 14.809 0 0 0 317 27.6 L 304.6 27.6 L 304.6 87.2 A 6.086 6.086 0 0 0 306.333 91.477 A 7.94 7.94 0 0 0 306.45 91.6 A 6.087 6.087 0 0 0 310.874 93.499 A 7.591 7.591 0 0 0 311 93.5 L 312.2 93.5 L 312.3 94.5 L 290.4 94.5 L 290.4 93.5 L 291.7 93.5 Q 294.2 93.5 296.1 91.7 A 6.176 6.176 0 0 0 298.1 87.305 A 6.361 6.361 0 0 0 298.1 87.3 L 298.1 31.8 Q 298 29.2 296.15 27.35 A 6.06 6.06 0 0 0 291.781 25.5 A 7.26 7.26 0 0 0 291.7 25.5 L 290.4 25.5 L 290.4 24.5 L 317.4 24.5 A 25.435 25.435 0 0 1 323.515 25.196 A 17.955 17.955 0 0 1 331.55 29.45 A 16.406 16.406 0 0 1 336.769 40.081 A 22.722 22.722 0 0 1 336.9 42.55 A 22.6 22.6 0 0 1 335.52 50.553 A 20.515 20.515 0 0 1 332 56.55 Q 327.1 62.4 320 62.4 L 319.9 62.4 A 349.725 349.725 0 0 1 323.047 65.78 Q 325.181 68.1 327.6 70.8 A 3131.663 3131.663 0 0 0 333.652 77.463 Q 345.364 90.32 349.491 94.489 A 85.136 85.136 0 0 0 349.8 94.8 A 190.626 190.626 0 0 0 353.313 98.229 Q 356.106 100.881 358.45 102.85 A 55.592 55.592 0 0 0 360.928 104.821 Q 362.169 105.748 363.3 106.462 A 24.28 24.28 0 0 0 365.1 107.5 Q 371 110.7 376.8 110.7 Q 378 110.7 379.2 110.5 Z" id="5" vector-effect="non-scaling-stroke"/><path d="M 361.7 22.1 L 361.4 21.1 A 36.838 36.838 0 0 1 367.97 19.033 A 28.87 28.87 0 0 1 373.9 18.4 Q 378.9 18.4 384.2 22.1 Q 387.1 24.1 390.7 29.9 Q 393.1 33.9 396.8 44.4 L 409 79 Q 411.908 87.032 414.888 92.786 A 61.271 61.271 0 0 0 417.55 97.45 A 91.067 91.067 0 0 0 420.196 101.399 Q 422.837 105.114 425.17 107.428 A 26.723 26.723 0 0 0 425.5 107.75 A 25.042 25.042 0 0 0 428.941 110.534 A 18.783 18.783 0 0 0 433 112.6 A 32.533 32.533 0 0 0 435.306 113.338 Q 437.617 113.978 439.333 113.999 A 9.458 9.458 0 0 0 439.45 114 Q 441.831 114 443.732 113.651 A 17.015 17.015 0 0 0 444 113.6 L 444.1 114.6 A 31.019 31.019 0 0 1 437.613 116.042 A 27.135 27.135 0 0 1 434.7 116.2 Q 430.1 116.2 425.5 113.85 A 30.482 30.482 0 0 1 419.197 109.516 A 36.859 36.859 0 0 1 416.9 107.3 A 45.607 45.607 0 0 1 410.816 99.495 Q 406.05 91.925 402.3 80.8 L 398.4 69.4 L 371 69.4 L 364.1 87.2 A 6.423 6.423 0 0 0 363.642 88.906 A 5.797 5.797 0 0 0 363.6 89.6 A 3.184 3.184 0 0 0 363.823 90.738 Q 363.986 91.166 364.268 91.61 A 6.936 6.936 0 0 0 364.65 92.15 Q 365.653 93.439 367.705 93.497 A 6.923 6.923 0 0 0 367.9 93.5 L 368.7 93.5 L 368.7 94.5 L 348.6 94.5 L 348.6 93.5 L 349.5 93.5 Q 351.9 93.5 354.2 92.05 Q 356.5 90.6 358 87.7 L 382.8 28.3 A 21.315 21.315 0 0 0 378.976 24.076 A 14.607 14.607 0 0 0 369.4 20.6 A 19.799 19.799 0 0 0 365.194 21.074 A 26.661 26.661 0 0 0 361.7 22.1 Z M 385.3 32.6 L 372.1 66.4 L 397.4 66.4 L 389.5 43.1 A 146.287 146.287 0 0 0 388.102 39.196 Q 386.606 35.213 385.3 32.6 Z" id="6" vector-effect="non-scaling-stroke"/></g></svg>