<?xml version="1.0" encoding="UTF-8"?>
<svg version="1.1" xmlns="http://www.w3.org/2000/svg" width="1008" height="1008">
<path d="M0 0 C2.15815131 4.31630262 3.16031591 7.11250913 3.4375 12 C3.82190328 17.8941837 4.35144987 23.75404025 5 29.625 C5.12459595 30.77935547 5.12459595 30.77935547 5.25170898 31.95703125 C5.68277038 35.97532765 5.68277038 35.97532765 6.52018738 39.92160034 C7.08276569 42.35851535 7.14932887 44.58910974 7.17700195 47.09033203 C7.18983719 48.10725128 7.20267242 49.12417053 7.21589661 50.17190552 C7.22697701 51.82317947 7.22697701 51.82317947 7.23828125 53.5078125 C7.246353 54.66127167 7.25442474 55.81473083 7.26274109 57.00314331 C7.27658829 59.45943706 7.28730759 61.9157501 7.29516602 64.37207031 C7.30654035 66.83469454 7.32675213 69.2972971 7.35668945 71.75976562 C7.67228263 97.75476998 3.93027105 121.98714671 -3 147 C-3.23976563 147.87350098 -3.47953125 148.74700195 -3.7265625 149.64697266 C-10.0001144 172.23779175 -18.07517767 194.68469713 -31.65625 214 C-33.74932916 217.11528061 -35.44565443 220.42955549 -37.2109375 223.73828125 C-40.96877416 230.58935899 -45.01374226 237.2800833 -49 244 C-39.28580824 238.78608598 -30.52117208 233.01239819 -22 226 C-21.43812988 225.54109375 -20.87625977 225.0821875 -20.29736328 224.609375 C-4.81102542 212.82296716 -4.81102542 212.82296716 7 198 C7.66 198 8.32 198 9 198 C9.26683594 197.40316406 9.53367187 196.80632812 9.80859375 196.19140625 C11.02486932 193.95425676 12.20357259 192.65579933 14.0625 190.9375 C18.03969797 187.09342999 21.44448681 182.87344196 24.88671875 178.55078125 C26.82494676 176.21129346 28.74053746 174.03113791 31 172 C31.66 172 32.32 172 33 172 C31.2791608 197.21919516 23.403225 225.43280389 12.35546875 248.171875 C11.27907193 250.41772887 10.27544987 252.66294942 9.30078125 254.953125 C2.08186083 271.8391704 -6.73023325 287.77939587 -17 303 C-17.55252441 303.82056885 -17.55252441 303.82056885 -18.11621094 304.65771484 C-26.98679896 317.78664672 -36.5650382 330.09842376 -47 342 C-47.78117187 342.89460938 -48.56234375 343.78921875 -49.3671875 344.7109375 C-59.1573299 355.83106151 -70.04327867 366.22555851 -82 375 C-73.22015193 374.64163885 -65.34438391 372.67821929 -57 370 C-55.92234375 369.66226562 -54.8446875 369.32453125 -53.734375 368.9765625 C-45.27728848 366.1508535 -37.39589655 362.43829721 -29.45874023 358.39013672 C-24.18346692 355.76724943 -19.89483901 354.35560514 -14 354 C-19.22830034 391.89112291 -59.94671012 439.01323647 -89.625 461.625 C-107.80781638 475.11689291 -126.95443088 482.92884072 -149.125 487.42578125 C-150.6727285 487.74386497 -150.6727285 487.74386497 -152.25172424 488.06837463 C-162.71938317 490.19287293 -173.23188024 492.04726177 -183.75369263 493.88046265 C-244.97350979 503.33211582 -244.97350979 503.33211582 -293.3671875 539.19140625 C-303.88965097 556.32515338 -305.207148 574.93997677 -305.01403427 594.60647583 C-304.9916328 596.99668616 -304.97780232 599.38681299 -304.96633911 601.77709961 C-304.93309752 608.56407892 -304.89125349 615.35091921 -304.82861328 622.13769531 C-304.79067152 626.31421556 -304.76785801 630.49059949 -304.75430679 634.66726685 C-304.74633536 636.24272487 -304.73284716 637.81816632 -304.71337509 639.39352417 C-304.42314219 663.27513343 -304.42314219 663.27513343 -312 672 C-315.40213426 674.58092944 -318.84966135 674.23492483 -323 674 C-325.11323776 671.88676224 -324.19683898 667.16376705 -324.22119141 664.24072266 C-324.2326973 663.31787979 -324.24420319 662.39503693 -324.25605774 661.44422913 C-324.2930883 658.350875 -324.32261794 655.25750222 -324.3515625 652.1640625 C-324.37473635 649.97838112 -324.39812694 647.79270202 -324.42172241 645.60702515 C-324.47042373 640.97795266 -324.51523231 636.34886102 -324.55761719 631.71972656 C-324.60046809 627.07934712 -324.6487636 622.43908689 -324.703125 617.79882812 C-324.99720193 592.65774455 -325.08642252 567.5375051 -324.58203125 542.3984375 C-324.56150822 541.36071827 -324.54098518 540.32299904 -324.51984024 539.25383377 C-324.12890769 520.17111213 -323.31835615 501.11900004 -322.12890625 482.06976318 C-322.00393032 480.06310662 -321.88276263 478.056214 -321.76171875 476.04931641 C-320.92348819 462.41563845 -319.72248546 448.95369727 -317.42089844 435.48535156 C-316.98250574 432.8966986 -316.57228352 430.304508 -316.1640625 427.7109375 C-308.18332622 378.12765024 -292.86086122 330.4747152 -264 289 C-263.59813477 288.4126709 -263.19626953 287.8253418 -262.78222656 287.22021484 C-250.57787699 269.38573623 -236.38786942 253.19955994 -218.90332031 240.39404297 C-216.79035388 238.84644954 -214.68801216 237.28500904 -212.5859375 235.72265625 C-203.26591786 228.81088795 -193.87877681 221.99252274 -184.4609375 215.21484375 C-181.4805697 213.06989196 -178.50706358 210.91593592 -175.5390625 208.75390625 C-167.05986787 202.5853685 -158.49998112 196.56213423 -149.82885742 190.66625977 C-143.99774503 186.69768848 -138.24000081 182.63998769 -132.515625 178.51953125 C-129.2918461 176.20094683 -126.04180274 173.92111691 -122.78930664 171.64306641 C-105.23276236 159.32872999 -87.96011003 146.50650355 -72.16015625 131.97265625 C-70.12622007 130.11526426 -68.04269251 128.33811247 -65.9375 126.5625 C-62.00659851 123.14882239 -58.59803263 119.34619456 -55.17578125 115.4296875 C-53.67978371 113.75911215 -52.12560882 112.13942227 -50.52734375 110.56640625 C-26.65006806 86.32008457 -14.859553 53.43689336 -7.453125 21.00390625 C-3.94549392 5.91824088 -3.94549392 5.91824088 0 0 Z M-14 93 C-19.86351663 99.59645621 -24.93006804 106.68565968 -30.04296875 113.87109375 C-38.11540203 125.12878117 -47.15631897 136.56327005 -59 144 C-60.68662458 145.64646685 -62.35511706 147.31183067 -64 149 C-64.763125 149.556875 -65.52625 150.11375 -66.3125 150.6875 C-66.869375 151.120625 -67.42625 151.55375 -68 152 C-68 152.66 -68 153.32 -68 154 C-68.55816406 154.2475 -69.11632812 154.495 -69.69140625 154.75 C-72.41352516 156.22390533 -74.56901973 158.0054903 -76.9375 160 C-90.15975498 170.97165839 -104.06120056 181.10447941 -117.875 191.3125 C-118.68404785 191.9115918 -119.4930957 192.51068359 -120.32666016 193.12792969 C-124.48690562 196.19609993 -128.69286161 199.14010623 -133 202 C-134.89455136 203.35647119 -136.77450774 204.73188433 -138.65454102 206.10839844 C-150.88558199 215.05854812 -163.4429705 223.51697137 -176 232 C-179.42462227 234.31578445 -182.84793857 236.63348308 -186.26928711 238.95410156 C-188.4042224 240.40197672 -190.54037914 241.8480531 -192.67797852 243.29199219 C-210.29857982 255.01373938 -210.29857982 255.01373938 -225 270 C-226.65698904 271.67628842 -228.32472024 273.34199117 -230 275 C-250.76636509 296.16225767 -265.3189018 323.300591 -276.09545898 350.71557617 C-276.8524315 352.62731486 -277.64994766 354.52293366 -278.45703125 356.4140625 C-290.37806409 384.65351204 -297.3852905 416.75290545 -302 447 C-302.11569336 447.74556152 -302.23138672 448.49112305 -302.35058594 449.25927734 C-304.0435353 460.52467478 -304.22479501 471.62287502 -304 483 C-297.63246165 475.21592503 -292.73315452 466.57716141 -287.75 457.875 C-276.16018182 437.72172615 -263.11043118 418.61402263 -247.73828125 401.140625 C-245.19283699 398.24722958 -242.7779745 395.26318693 -240.375 392.25 C-236.52359502 387.47991127 -232.31053828 383.21930962 -227.87109375 378.99609375 C-225.77203546 377.21279653 -225.77203546 377.21279653 -226 375 C-225.01 374.67 -224.02 374.34 -223 374 C-221.28396244 372.38421206 -219.62657993 370.70581162 -218 369 C-216.94733636 367.91989885 -215.89253846 366.84187481 -214.8359375 365.765625 C-214.27720947 365.19634277 -213.71848145 364.62706055 -213.14282227 364.04052734 C-206.74596388 357.56151071 -200.17582463 351.61797939 -193 346 C-191.88239383 345.09456779 -190.7666062 344.18688772 -189.65234375 343.27734375 C-175.67282418 331.90043479 -161.07625217 321.4040921 -146.28393555 311.11645508 C-139.00832574 306.04142665 -131.87834239 300.79683443 -124.83642578 295.40283203 C-123.06377162 294.04871467 -121.28068752 292.70941344 -119.49609375 291.37109375 C-80.21772094 261.59195862 -53.17477455 221.47801193 -33 177 C-32.67402832 176.28553711 -32.34805664 175.57107422 -32.01220703 174.83496094 C-20.7743751 149.88733404 -12.54963984 121.48199192 -12 94 C-12.66 93.67 -13.32 93.34 -14 93 Z M-8.71875 237.38671875 C-9.47639648 237.9060498 -10.23404297 238.42538086 -11.01464844 238.96044922 C-12.24489746 239.81533936 -12.24489746 239.81533936 -13.5 240.6875 C-14.35368164 241.27547363 -15.20736328 241.86344727 -16.08691406 242.46923828 C-21.7036667 246.35497032 -27.23885812 250.34163279 -32.75 254.375 C-47.02359857 264.78049601 -61.9343893 274.206996 -77.0625 283.3125 C-88.37485525 290.12624739 -98.95967471 297.4487842 -109.22265625 305.765625 C-121.83738509 315.91418322 -134.95696902 325.16084284 -148.37109375 334.21728516 C-170.19189426 349.01441418 -190.58675439 365.08609212 -209 384 C-211.31990028 386.33038176 -213.64644056 388.65267984 -215.9921875 390.95703125 C-216.61351562 391.56933594 -217.23484375 392.18164062 -217.875 392.8125 C-218.49117187 393.41707031 -219.10734375 394.02164063 -219.7421875 394.64453125 C-225.61691452 400.77335546 -231.02185482 407.34184074 -236.4375 413.875 C-237.07365234 414.63296875 -237.70980469 415.3909375 -238.36523438 416.171875 C-239.26532227 417.25855469 -239.26532227 417.25855469 -240.18359375 418.3671875 C-240.99654907 419.34341064 -240.99654907 419.34341064 -241.82592773 420.33935547 C-243.19243034 421.93321924 -243.19243034 421.93321924 -243 424 C-243.66 424 -244.32 424 -245 424 C-245.91483319 425.301878 -246.81559197 426.61486772 -247.6640625 427.9609375 C-249.34609021 430.52824295 -251.17268692 432.97164629 -253 435.4375 C-255.96977601 439.51192167 -258.781754 443.46706251 -261 448 C-260.67 448.66 -260.34 449.32 -260 450 C-254.14780397 446.33915491 -248.37170283 442.58878404 -242.65307617 438.72363281 C-221.27749018 424.30983075 -198.65383933 412.46031722 -175.3125 401.5625 C-174.68542145 401.26935913 -174.0583429 400.97621826 -173.41226196 400.67419434 C-167.36350111 397.8534988 -161.30492334 395.09593263 -155.125 392.57421875 C-148.23047595 389.73677981 -141.52646736 386.53195475 -134.81958008 383.28125 C-132.70421673 382.25808559 -130.58375985 381.2460667 -128.46289062 380.234375 C-114.36676287 373.45233362 -101.30965271 365.70686545 -89 356 C-87.64069237 354.94522568 -86.28131324 353.89054349 -84.921875 352.8359375 C-83.53041177 351.7458608 -82.13977749 350.65472509 -80.75 349.5625 C-80.08097656 349.04196045 -79.41195312 348.5214209 -78.72265625 347.98510742 C-77.11026122 346.70334633 -75.54962425 345.35697971 -74 344 C-74 343.34 -74 342.68 -74 342 C-73.4328125 341.77054687 -72.865625 341.54109375 -72.28125 341.3046875 C-69.40174004 339.65784447 -67.66944114 337.62877282 -65.5 335.125 C-61.22819702 330.22413014 -61.22819702 330.22413014 -59.02734375 328.0625 C-56.49859137 325.48989642 -54.27856951 322.71474404 -52.0625 319.875 C-51.58941406 319.26881836 -51.11632812 318.66263672 -50.62890625 318.03808594 C-19.1861951 279.78708075 -19.1861951 279.78708075 -3 235 C-5.62048546 235 -6.56571318 235.90456696 -8.71875 237.38671875 Z M-60.0612793 388.71508789 C-60.85659058 388.87294769 -61.65190186 389.0308075 -62.47131348 389.19345093 C-63.33027222 389.36808868 -64.18923096 389.54272644 -65.07421875 389.72265625 C-65.97837524 389.90341705 -66.88253174 390.08417786 -67.81408691 390.27041626 C-70.77279406 390.86338707 -73.7302276 391.46241731 -76.6875 392.0625 C-77.69575836 392.2663028 -78.70401672 392.47010559 -79.74282837 392.68008423 C-84.88417706 393.71932827 -90.02460464 394.76296877 -95.1640625 395.81152344 C-98.79574177 396.55231595 -102.42828559 397.28834951 -106.0625 398.01660156 C-130.49721681 402.9164242 -152.27977956 409.70703391 -175 420 C-175.86995605 420.38639648 -176.73991211 420.77279297 -177.63623047 421.17089844 C-198.68667536 430.54010163 -218.68954608 442.41617377 -237.39990234 455.85107422 C-239.87706603 457.62976392 -242.37686174 459.37594987 -244.875 461.125 C-245.63554688 461.66382813 -246.39609375 462.20265625 -247.1796875 462.7578125 C-249 464 -249 464 -251 465 C-251 465.66 -251 466.32 -251 467 C-251.8353125 467.4021875 -251.8353125 467.4021875 -252.6875 467.8125 C-255.21225334 469.10899496 -257.63714484 470.42476323 -260 472 C-260 472.66 -260 473.32 -260 474 C-260.83724609 474.36158203 -260.83724609 474.36158203 -261.69140625 474.73046875 C-264.48892209 476.26886579 -266.58486915 478.15561964 -268.9375 480.3125 C-269.81664062 481.11816406 -270.69578125 481.92382812 -271.6015625 482.75390625 C-274.12511779 485.11717057 -276.58991277 487.52105314 -279 490 C-279.763125 490.7425 -280.52625 491.485 -281.3125 492.25 C-290.41627275 501.20675678 -290.41627275 501.20675678 -297 512 C-296.67 512.99 -296.34 513.98 -296 515 C-295.4738208 514.65855957 -294.9476416 514.31711914 -294.40551758 513.96533203 C-259.8935465 491.71757614 -225.78230843 482.45872318 -185.64065552 476.04299927 C-153.90644098 470.96316651 -125.13574213 464.66986843 -99 445 C-98.113125 444.33742188 -97.22625 443.67484375 -96.3125 442.9921875 C-80.77819607 430.83289603 -55.3703663 408.7925675 -52 388 C-54.99182407 388 -57.20184552 388.14084239 -60.0612793 388.71508789 Z " fill="#FFFFFF" transform="translate(915,0)"/>
<path d="M0 0 C0.66 0 1.32 0 2 0 C5.03985017 9.39972104 7.81343302 18.85066222 10.4375 28.375 C14.99112207 44.74302765 19.85159974 60.04428186 28 75 C28.56589844 76.05832031 29.13179687 77.11664063 29.71484375 78.20703125 C34.09488489 86.07049334 39.39698544 92.99184073 45 100 C45.73992187 100.94617188 46.47984375 101.89234375 47.2421875 102.8671875 C50.02399054 106.40480117 52.7557313 109.87386994 56 113 C58 115 58 115 58 117 C58.66 117 59.32 117 60 117 C61.19921875 118.2578125 61.19921875 118.2578125 62.6875 120.125 C70.9932298 129.86394305 80.77767762 138.49057602 91.13916016 145.97998047 C92.45804155 146.94443594 93.7341973 147.96686593 95 149 C95 149.66 95 150.32 95 151 C96.06927734 151.35578125 96.06927734 151.35578125 97.16015625 151.71875 C100.47566747 153.21460651 102.70308923 155.10312398 105.4375 157.5 C111.99480399 163.1163273 118.90279161 168.09266345 126 173 C126.62003906 173.42990234 127.24007812 173.85980469 127.87890625 174.30273438 C138.86669138 181.90539378 149.95919235 189.35569301 161.03213501 196.83340454 C216.93076647 234.58279753 259.5930126 269.15337364 290 331 C290.37350586 331.75168457 290.74701172 332.50336914 291.13183594 333.27783203 C301.47187073 354.35478114 307.94864661 378.16972949 313 401 C313.15172668 401.67175262 313.30345337 402.34350525 313.45977783 403.03561401 C315.97699742 414.22873978 317.92911676 425.39108741 319.328125 436.77758789 C319.62302121 439.17143698 319.93166361 441.5632115 320.2421875 443.95507812 C322.80412709 464.05431351 324.3109758 484.25791762 325.125 504.5 C325.18803818 506.04575714 325.18803818 506.04575714 325.25234985 507.6227417 C326.19430658 531.89674373 326.18834006 556.18206928 326.18758392 580.47085571 C326.18750148 583.56952009 326.18886011 586.66818169 326.19024658 589.7668457 C326.19472088 617.52423846 325.79404004 645.25402309 325 673 C316.50852273 673.13920455 316.50852273 673.13920455 313 670 C305.20914926 658.82182285 305.6898457 644.92047567 306.375 631.875 C306.48625446 629.1589256 306.59390953 626.44299509 306.6953125 623.7265625 C306.7221814 623.02462769 306.74905029 622.32269287 306.7767334 621.5994873 C309.59493733 575.0367357 309.59493733 575.0367357 291.1328125 533.83203125 C289.46844061 532.15694452 287.75894136 530.57443702 286 529 C285.40703125 528.37609375 284.8140625 527.7521875 284.203125 527.109375 C266.58776565 510.24360541 240.15515586 503.37781377 216.9453125 498.609375 C215.91232529 498.39575821 214.87933807 498.18214142 213.81504822 497.96205139 C201.03074971 495.35041259 188.17913544 493.11705572 175.32641602 490.87231445 C138.7571425 484.46930631 107.29950489 476.23358193 79.4609375 450.26953125 C77.46073466 448.42489974 75.43169934 446.70207187 73.3125 445 C69.42778795 441.68066858 66.42050135 437.75935906 63.32226562 433.71533203 C61.72365288 431.6415039 60.10414274 429.58468925 58.484375 427.52734375 C57.21842223 425.91431969 55.95279945 424.30103659 54.6875 422.6875 C53.77085571 421.52202637 53.77085571 421.52202637 52.83569336 420.33300781 C45 410.28507504 45 410.28507504 45 407 C44.34 407 43.68 407 43 407 C41.90600586 405.6015625 41.90600586 405.6015625 40.71484375 403.625 C40.27108398 402.89522949 39.82732422 402.16545898 39.37011719 401.41357422 C38.89735352 400.61709473 38.42458984 399.82061523 37.9375 399 C37.44797852 398.18418457 36.95845703 397.36836914 36.45410156 396.52783203 C34.95916293 394.02446464 33.4778024 391.51351434 32 389 C31.5767041 388.28553711 31.1534082 387.57107422 30.71728516 386.83496094 C26.38145815 379.48544252 22.40567157 372.05071272 18.9375 364.25 C18.63811523 363.58210449 18.33873047 362.91420898 18.03027344 362.22607422 C16.58176637 358.85460896 16 356.73949905 16 353 C22.0107189 353.49294256 26.41009072 355.41171276 31.75 358.125 C48.7183219 366.39466446 65.4670795 371.43741917 84 375 C80.65699852 371.60596033 77.22871156 368.32873693 73.73461914 365.09082031 C47.53237869 340.78710608 47.53237869 340.78710608 37 327 C36.19433594 325.97648437 35.38867188 324.95296875 34.55859375 323.8984375 C6.95381535 288.72033896 -13.79176213 248.330248 -25 205 C-25.4316748 203.34532715 -25.4316748 203.34532715 -25.87207031 201.65722656 C-26.74512661 198.27569761 -27.59691867 194.8897383 -28.4375 191.5 C-28.69700439 190.4672998 -28.95650879 189.43459961 -29.22387695 188.37060547 C-30.5673635 182.75911128 -31.28160504 177.76946917 -31 172 C-27.99125902 173.33803458 -26.01614357 174.77584376 -23.79296875 177.1953125 C-23.21023193 177.82453613 -22.62749512 178.45375977 -22.02709961 179.10205078 C-21.1164978 180.10341064 -21.1164978 180.10341064 -20.1875 181.125 C-19.24112671 182.15149658 -19.24112671 182.15149658 -18.27563477 183.19873047 C-15.27590386 186.46304067 -12.31567365 189.75259451 -9.4375 193.125 C-4.77728094 198.54801706 0.41316655 203.48833922 5.49462891 208.51171875 C11.39319812 214.34332399 11.39319812 214.34332399 13.7109375 216.8515625 C22.93027671 226.67686767 34.96326223 234.99188387 47 241 C47.66 241 48.32 241 49 241 C45.59453974 234.34713881 41.80604797 228.10155585 37.6875 221.875 C17.43438426 190.91935171 4.00384057 154.47380033 -2 118 C-2.13170593 117.22872269 -2.26341187 116.45744537 -2.39910889 115.66279602 C-4.78787302 101.51608819 -5.51832973 87.70777737 -5.4375 73.375 C-5.4361203 72.31158386 -5.4347406 71.24816772 -5.43331909 70.15252686 C-5.30983173 18.1047848 -5.30983173 18.1047848 0 0 Z M13 90 C15.19346861 125.28458996 26.03751622 158.16529419 41 190 C41.37012207 190.79003418 41.74024414 191.58006836 42.12158203 192.39404297 C53.50694254 216.46548924 68.72683452 237.98770264 86.765625 257.5390625 C88.58561483 259.54359676 90.31219863 261.57278417 92 263.6875 C92.99 264.8321875 92.99 264.8321875 94 266 C94.66 266 95.32 266 96 266 C96 266.66 96 267.32 96 268 C97.44683052 269.50273886 97.44683052 269.50273886 99.375 271.0625 C102.52178208 273.73066312 105.59207688 276.45308248 108.625 279.25 C114.20342482 284.27736462 120.07476436 288.8712859 126.01367188 293.45947266 C128.1054257 295.08176452 130.18625789 296.71733548 132.265625 298.35546875 C141.1689947 305.35384038 150.20728706 312.11389535 159.4140625 318.70703125 C187.96643575 339.15869886 217.69125875 360.51903407 239.76171875 388.1953125 C242.08677823 391.10873781 244.47394193 393.96147987 246.875 396.8125 C252.39299086 403.43408903 257.74545969 410.16774333 263 417 C263.79664063 418.02577148 263.79664063 418.02577148 264.609375 419.07226562 C277.57639823 435.84153515 288.77927518 453.88386055 298.2121582 472.87548828 C300.05271372 476.52275001 301.92526183 479.2934123 305 482 C306.89529087 480.10470913 306.1634195 476.87162634 306.171875 474.3515625 C306.1530959 466.59938969 305.35026944 459.04958161 304.25 451.375 C303.97929688 449.4266626 303.97929688 449.4266626 303.703125 447.43896484 C300.4908856 424.85569499 295.42705278 403.04211388 288.75 381.25 C288.39017029 380.07177673 288.39017029 380.07177673 288.02307129 378.86975098 C284.49496352 367.3608846 280.69896263 356.07156338 275.87353516 345.03076172 C275.03338528 343.07761283 274.25023291 341.11068252 273.48046875 339.12890625 C266.18450509 320.79642063 254.90760733 303.66109224 243 288 C242.3090625 287.06414062 241.618125 286.12828125 240.90625 285.1640625 C238.56038966 281.99222797 238.56038966 281.99222797 236 279 C235.34 279 234.68 279 234 279 C233.73823975 278.41371826 233.47647949 277.82743652 233.20678711 277.22338867 C231.93252809 274.87568952 230.57261122 273.31418111 228.69140625 271.42578125 C228.03245361 270.76271973 227.37350098 270.0996582 226.69458008 269.41650391 C225.99099365 268.72218262 225.28740723 268.02786133 224.5625 267.3125 C223.83893311 266.59497559 223.11536621 265.87745117 222.36987305 265.13818359 C216.83651166 259.70623337 211.15441113 254.72378047 205 250 C204.05640625 249.25105469 203.1128125 248.50210938 202.140625 247.73046875 C189.5845341 237.86724506 176.38145291 228.84285253 163.0703125 220.03466797 C142.92980448 206.69853009 122.80302943 193.24006553 103.75878906 178.36425781 C101.05441363 176.2665274 98.32597706 174.20067817 95.60058594 172.13037109 C84.62980355 163.78554825 74.07252754 155.19323449 64 145.78125 C61.64983283 143.58932351 59.25562396 141.46347694 56.8125 139.375 C43.11902673 127.46513039 32.10674471 113.10053329 21.4375 98.5078125 C21.02757812 97.9502124 20.61765625 97.3926123 20.1953125 96.81811523 C19.06207452 95.2721805 17.93704307 93.7202398 16.8125 92.16796875 C16.214375 91.45253906 15.61625 90.73710938 15 90 C14.34 90 13.68 90 13 90 Z M5 234 C11.66713002 278.18084824 56.21853756 328.86361324 90.72265625 354.55859375 C91.26937988 354.96190918 91.81610352 355.36522461 92.37939453 355.78076172 C93.99365689 356.99522785 95.55957132 358.25379365 97.12109375 359.53515625 C117.9082743 376.45836677 144.06089514 386.42781531 168.375 397.1875 C196.9126384 409.82112679 223.54644265 423.74244907 249.52612305 441.10449219 C250.19892807 441.55296509 250.87173309 442.00143799 251.56492615 442.46350098 C252.83503359 443.31131888 254.10302555 444.16231737 255.36854553 445.01696777 C257.90705616 446.71298997 260.08648331 448.02882777 263 449 C257.06493328 432.28556886 243.5664885 417.54298401 231.61328125 404.796875 C229.2184429 402.23378941 226.88523941 399.62825288 224.5625 397 C217.51299046 389.15457809 210.08170874 381.60519421 202.046875 374.765625 C199.54285151 372.6056658 197.12002302 370.36512007 194.6875 368.125 C189.28499945 363.20486557 183.71013746 358.55742254 178 354 C177.48630859 353.58669434 176.97261719 353.17338867 176.44335938 352.74755859 C166.55530238 344.79944991 156.32473855 337.3677107 146 330 C144.77970208 329.12534288 143.55963304 328.25036631 142.33984375 327.375 C141.20587036 326.56230296 140.07175864 325.74979888 138.9375 324.9375 C138.38175293 324.53950195 137.82600586 324.14150391 137.25341797 323.73144531 C134.15778584 321.52091362 131.04673069 319.33529495 127.91796875 317.171875 C120.74738528 312.19561335 113.81529232 307.10897383 107.125 301.5 C98.62943684 294.42563162 89.44166105 288.71535216 80 283 C78.47454851 282.06496251 76.94979675 281.12878242 75.42578125 280.19140625 C69.43582271 276.51337293 63.43630096 272.85286126 57.3984375 269.25390625 C47.50891583 263.33300542 38.17641339 256.96836087 29 250 C26.85327508 248.38261133 24.70467569 246.76775141 22.55517578 245.15405273 C21.18575123 244.12485298 19.81811102 243.09327285 18.45263672 242.05883789 C12.23445797 236.65104166 12.23445797 236.65104166 5 234 Z M54 387 C55.38314566 391.87819114 57.55265889 395.83384403 60.375 400 C60.80981689 400.64718994 61.24463379 401.29437988 61.69262695 401.96118164 C66.22495296 408.55984465 71.36985105 414.56830043 76.69580078 420.53271484 C78.36791082 422.41391689 79.99307528 424.33392839 81.625 426.25 C82.74292335 427.50633291 83.86825675 428.75610201 85 430 C85.67546875 430.7528125 86.3509375 431.505625 87.046875 432.28125 C114.47759024 461.36885408 152.43763518 470.82147341 190.625 476.0625 C225.64547791 480.90890491 257.44044174 489.07136254 287.703125 507.95703125 C291.09358821 510.05799364 294.52734991 512.03892222 298 514 C297.27423728 506.25853094 291.55220413 500.27670066 286.8125 494.5 C286.37236572 493.95915771 285.93223145 493.41831543 285.47875977 492.86108398 C284.36597107 491.53338544 283.18762835 490.26119825 282 489 C281.34 489 280.68 489 280 489 C280 488.34 280 487.68 280 487 C278.40665761 485.56450274 276.74748918 484.20172673 275.0625 482.875 C271.57637755 480.09492767 268.19176265 477.29681961 264.9375 474.25 C224.88832406 438.33401303 169.06503658 408.37163959 116.09439087 399.0241394 C110.98038694 398.12144552 105.87533463 397.17045735 100.76953125 396.22265625 C99.76268784 396.03683487 98.75584442 395.85101349 97.7184906 395.65956116 C87.4063006 393.73894698 77.19234872 391.44879537 66.98681641 389.03125 C65.27051025 388.62712891 65.27051025 388.62712891 63.51953125 388.21484375 C62.54089111 387.97886475 61.56225098 387.74288574 60.55395508 387.49975586 C57.77947351 386.87197524 57.77947351 386.87197524 54 387 Z " fill="#FFFFFF" transform="translate(83,1)"/>
<path d="M0 0 C1.21130585 -0.00972839 1.21130585 -0.00972839 2.44708252 -0.01965332 C7.77987946 -0.02412277 7.77987946 -0.02412277 10.015625 1.09375 C10.41050474 3.7747756 10.66734003 6.33518902 10.828125 9.03125 C10.92383789 10.1440332 10.92383789 10.1440332 11.02148438 11.27929688 C11.16015625 13.43359375 11.16015625 13.43359375 11.015625 17.09375 C7.7840168 19.24815546 6.64324019 19.35484501 2.890625 19.53125 C-5.35097009 20.17359361 -12.16968891 21.87338814 -17.984375 28.09375 C-24.77629023 39.0101286 -24.26745064 52.46016369 -24.109375 64.84375 C-24.09931217 66.23436846 -24.09019223 67.62499408 -24.08203125 69.015625 C-24.05870095 72.37518819 -24.0259673 75.73437175 -23.984375 79.09375 C-23.02402344 78.49949219 -22.06367188 77.90523438 -21.07421875 77.29296875 C0.58305222 64.10466046 24.43180426 52.66946869 48.87280273 45.73217773 C50.88601801 45.13236482 52.81504425 44.43326095 54.765625 43.65625 C65.05580857 39.7430816 75.0003881 37.45970471 86.015625 37.09375 C82.74457901 39.7639098 79.32794363 41.49100759 75.51171875 43.28125 C74.20978414 43.89765731 72.90803345 44.51445322 71.60644531 45.1315918 C70.92827759 45.45155121 70.25010986 45.77151062 69.5513916 46.10116577 C56.67228224 52.19362362 44.14553409 58.59840716 32.015625 66.09375 C30.85015137 66.8062793 30.85015137 66.8062793 29.66113281 67.53320312 C-1.52830498 86.64727925 -34.64732015 109.5278739 -57.984375 138.09375 C-58.7371875 138.95871094 -59.49 139.82367188 -60.265625 140.71484375 C-77.80174694 161.09246693 -92.79808391 185.92228724 -92.30078125 213.60546875 C-89.45871304 244.9383936 -67.15084017 278.06841882 -47.7421875 301.80078125 C-45.984375 304.09375 -45.984375 304.09375 -44.984375 307.09375 C-43.994375 307.09375 -43.004375 307.09375 -41.984375 307.09375 C-41.98714038 306.2883012 -41.98990576 305.4828524 -41.99275494 304.65299606 C-42.0589736 285.06542743 -42.10863551 265.47788109 -42.13981152 245.89022446 C-42.15528826 236.41782362 -42.17639319 226.94549745 -42.21069336 217.47314453 C-42.24057101 209.2181885 -42.25994413 200.96328654 -42.26664048 192.70827794 C-42.27055552 188.3362606 -42.27977311 183.96439794 -42.30156517 179.59243011 C-42.32190455 175.47863148 -42.32821399 171.36505149 -42.32369804 167.25120735 C-42.32452439 165.74029668 -42.3305053 164.22937882 -42.34199142 162.71851158 C-42.35689621 160.65710314 -42.35333671 158.59652242 -42.34513855 156.53509521 C-42.34790393 155.3810104 -42.35066931 154.22692558 -42.35351849 153.0378685 C-41.94713192 149.79671632 -41.28223985 148.38439288 -38.984375 146.09375 C-38.324375 146.09375 -37.664375 146.09375 -36.984375 146.09375 C-36.736875 145.50078125 -36.489375 144.9078125 -36.234375 144.296875 C-34.79468637 141.7594238 -33.33286007 140.55330898 -30.984375 138.84375 C-29.9325 138.06257813 -29.9325 138.06257813 -28.859375 137.265625 C-26.984375 136.09375 -26.984375 136.09375 -24.984375 136.09375 C-24.98014306 137.00298595 -24.97591112 137.91222191 -24.97155094 138.84901047 C-24.86788708 161.05428847 -24.7591988 183.25953704 -24.64503574 205.46476364 C-24.58994459 216.20338681 -24.53650452 226.94201329 -24.48706055 237.68066406 C-24.44392094 247.04914426 -24.3975722 256.41760239 -24.34749645 265.78604817 C-24.32113275 270.73865229 -24.29628997 275.6912527 -24.27530098 280.64388275 C-24.25542271 285.32239361 -24.23119641 290.00086337 -24.20388412 294.67933655 C-24.19467567 296.38023872 -24.18694573 298.08114979 -24.18095589 299.78206635 C-24.14827766 308.7982756 -23.99776186 317.80904392 -23.65513611 326.81915283 C-23.63291947 327.64036015 -23.61070283 328.46156747 -23.58781296 329.30765986 C-23.2287817 337.40803246 -20.26639145 343.24855468 -15.984375 350.09375 C-14.32689633 352.81596662 -12.68404817 355.54677914 -11.046875 358.28125 C-10.62269287 358.98628662 -10.19851074 359.69132324 -9.76147461 360.41772461 C5.88687326 386.95162036 12.96394419 418.70629314 6.1328125 449.12109375 C1.59725701 465.90090797 -4.97144671 481.27389004 -12.734375 496.78125 C-13.04562317 497.40447144 -13.35687134 498.02769287 -13.67755127 498.6697998 C-17.63279459 506.57926987 -21.72004786 514.35353879 -26.203125 521.98046875 C-29.34631888 527.47416507 -32.11927291 533.14712879 -34.88525391 538.83789062 C-35.65088438 540.4092868 -36.42180047 541.97811403 -37.19677734 543.54492188 C-49.99844218 569.43415704 -62.19008617 597.7149945 -53.69628906 627.07861328 C-51.64478528 632.88557907 -47.6052661 644.28330445 -41.984375 647.09375 C-42.01466797 646.52906006 -42.04496094 645.96437012 -42.07617188 645.38256836 C-45.91323898 571.36406801 -45.91323898 571.36406801 -29.48828125 545.76171875 C-28.99199219 545.21128906 -28.49570312 544.66085937 -27.984375 544.09375 C-26.994375 544.09375 -26.004375 544.09375 -24.984375 544.09375 C-24.20564736 547.53234853 -23.8648546 550.68759107 -23.88430786 554.21031189 C-23.88874908 555.72216316 -23.88874908 555.72216316 -23.89328003 557.26455688 C-23.90158844 558.35924286 -23.90989685 559.45392883 -23.91845703 560.58178711 C-23.92546631 562.32406837 -23.92546631 562.32406837 -23.93261719 564.10154724 C-23.94311304 566.62188083 -23.95577352 569.14220611 -23.97034073 571.66251945 C-23.99235225 575.65094614 -24.00672623 579.63935548 -24.01803589 583.62782288 C-24.05141796 594.96736061 -24.09308597 606.30682391 -24.15576172 617.64624023 C-24.19032064 623.91368872 -24.2141056 630.18108246 -24.22597015 636.44861609 C-24.23273008 639.76209317 -24.24686213 643.07528286 -24.27099991 646.38868523 C-24.29745729 650.08466457 -24.30537027 653.78025613 -24.30908203 657.47631836 C-24.3214389 658.5689801 -24.33379578 659.66164185 -24.3465271 660.78741455 C-24.33167445 666.39130415 -24.00713926 670.19322117 -20.984375 675.09375 C-20.984375 675.75375 -20.984375 676.41375 -20.984375 677.09375 C-20.406875 677.34125 -19.829375 677.58875 -19.234375 677.84375 C-16.65497521 679.27674988 -14.92315908 680.87799676 -12.984375 683.09375 C-12.984375 683.75375 -12.984375 684.41375 -12.984375 685.09375 C-12.09685547 685.48820313 -12.09685547 685.48820313 -11.19140625 685.890625 C-8.88573122 687.14752396 -7.4670765 688.44143624 -5.671875 690.34375 C-3.32305429 692.76801463 -0.94296025 695.04606175 1.640625 697.21875 C4.60026133 699.7174046 7.39608862 702.23607395 10.015625 705.09375 C10.015625 705.75375 10.015625 706.41375 10.015625 707.09375 C6.07614068 705.72684708 3.3270456 703.95645359 0.140625 701.28125 C-0.80425781 700.49105469 -1.74914062 699.70085938 -2.72265625 698.88671875 C-7.19121567 695.07789034 -11.62248771 691.22455215 -16.03271484 687.34838867 C-16.64711426 686.81060791 -17.26151367 686.27282715 -17.89453125 685.71875 C-18.44246338 685.23664062 -18.99039551 684.75453125 -19.55493164 684.2578125 C-20.99854726 682.99582419 -20.99854726 682.99582419 -22.984375 682.09375 C-23.07258607 686.05193926 -23.12516912 690.00987062 -23.171875 693.96875 C-23.19701172 695.07734375 -23.22214844 696.1859375 -23.24804688 697.328125 C-23.32520951 706.07322396 -22.84348778 714.2695947 -16.796875 721.03125 C-9.14894503 727.77662923 0.30462861 727.96658078 10.015625 729.09375 C10.015625 735.03375 10.015625 740.97375 10.015625 747.09375 C-18.364375 747.09375 -46.744375 747.09375 -75.984375 747.09375 C-75.984375 741.15375 -75.984375 735.21375 -75.984375 729.09375 C-73.715625 728.866875 -71.446875 728.64 -69.109375 728.40625 C-61.17403234 727.44308497 -54.40843643 725.43001498 -48.546875 719.71875 C-43.72930561 711.62523343 -42.8290718 704.25345554 -42.78125 695.07421875 C-42.77554993 694.2162117 -42.76984985 693.35820465 -42.76397705 692.47419739 C-42.75456482 690.66469542 -42.74800816 688.85517661 -42.74414062 687.0456543 C-42.73444233 684.30030941 -42.70338623 681.55571624 -42.671875 678.81054688 C-42.66534286 677.04427523 -42.66009322 675.27799829 -42.65625 673.51171875 C-42.6439032 672.70204147 -42.6315564 671.8923642 -42.61883545 671.05815125 C-42.64688542 663.76049953 -44.29506364 656.94818542 -48.5078125 650.8828125 C-49.20015991 649.85994141 -49.20015991 649.85994141 -49.90649414 648.81640625 C-50.38594482 648.12417969 -50.86539551 647.43195312 -51.359375 646.71875 C-64.36061171 627.25630553 -67.03542022 607.32197231 -62.546875 584.28125 C-58.98880882 567.68317741 -53.07548842 551.40331469 -46.1328125 535.9453125 C-40.21094214 521.24134868 -41.82132145 503.39445509 -41.859375 487.84375 C-41.86026123 486.79620544 -41.86114746 485.74866089 -41.86206055 484.66937256 C-41.87441815 472.17512468 -42.00453776 459.70458475 -42.484375 447.21875 C-43.02401674 433.17674362 -43.0980975 419.14525708 -43.109375 405.09375 C-43.11187256 404.00837952 -43.11437012 402.92300903 -43.11694336 401.80474854 C-43.12285247 398.69271672 -43.12133929 395.580783 -43.1171875 392.46875 C-43.11917145 391.53988983 -43.1211554 390.61102966 -43.12319946 389.65402222 C-43.10450436 384.37686009 -42.75057195 379.31636756 -41.984375 374.09375 C-40.664375 373.76375 -39.344375 373.43375 -37.984375 373.09375 C-26.89304905 384.95888939 -24.76845949 397.22290413 -24.359375 413.03125 C-24.32070313 414.31507568 -24.28203125 415.59890137 -24.2421875 416.92163086 C-23.80679902 432.94258825 -23.93185407 448.97677125 -24.02099609 465.00170898 C-24.02529633 466.08620331 -24.02959656 467.17069763 -24.0340271 468.28805542 C-24.04236898 470.33546154 -24.05484402 472.38285653 -24.07217407 474.4302063 C-24.08867875 479.10624191 -23.96189336 483.49431446 -22.984375 488.09375 C-9.24253703 463.34628073 -1.85619178 431.69259096 -9.73828125 404.01953125 C-16.25432506 382.98790525 -27.39062546 364.01662581 -39.984375 346.09375 C-40.41073242 345.47983398 -40.83708984 344.86591797 -41.27636719 344.23339844 C-47.68653318 335.00702947 -54.51813165 326.11243778 -61.36279297 317.20654297 C-104.80838255 260.60038033 -104.80838255 260.60038033 -113.984375 229.09375 C-114.231875 228.28035156 -114.479375 227.46695313 -114.734375 226.62890625 C-121.19900122 201.08465402 -111.26540341 175.80576665 -98.48828125 154.09765625 C-90.75879198 141.45192771 -80.98609677 129.98968349 -70.984375 119.09375 C-70.47463135 118.5366333 -69.9648877 117.9795166 -69.43969727 117.40551758 C-67.984375 116.09375 -67.984375 116.09375 -65.984375 116.09375 C-65.984375 115.43375 -65.984375 114.77375 -65.984375 114.09375 C-64.65625 112.75390625 -64.65625 112.75390625 -62.734375 111.15625 C-62.01378906 110.53878906 -61.29320312 109.92132813 -60.55078125 109.28515625 C-59.70386719 108.56199219 -58.85695313 107.83882813 -57.984375 107.09375 C-55.86258954 105.27968868 -53.76251863 103.44358151 -51.671875 101.59375 C-51.15657227 101.15554932 -50.64126953 100.71734863 -50.11035156 100.26586914 C-45.83817455 96.45522731 -43.37147611 92.42674733 -42.71278381 86.75531006 C-42.60547315 84.05337678 -42.59465321 81.36799438 -42.62109375 78.6640625 C-42.62059525 77.67429413 -42.62009674 76.68452576 -42.61958313 75.6647644 C-42.62191516 73.5787352 -42.63159204 71.49270273 -42.64819336 69.40673828 C-42.67174877 66.23574278 -42.66875163 63.0655919 -42.66210938 59.89453125 C-42.66768842 57.85937005 -42.67479973 55.82421235 -42.68359375 53.7890625 C-42.68268234 52.8512796 -42.68177094 51.9134967 -42.68083191 50.94729614 C-42.78036153 41.57405562 -43.7995126 32.37825198 -50.609375 25.40625 C-57.84044977 19.8901245 -67.24742551 19.2415718 -75.984375 18.09375 C-77.17119226 14.53329823 -77.08127332 11.65566663 -77.046875 7.90625 C-77.03785156 6.63394531 -77.02882813 5.36164063 -77.01953125 4.05078125 C-77.00792969 3.07496094 -76.99632812 2.09914062 -76.984375 1.09375 C-68.85487145 0.96146612 -60.72534175 0.83097206 -52.5957756 0.70259857 C-48.81855643 0.64289999 -45.04134804 0.58264544 -41.26416016 0.52099609 C-12.44540913 0.0515218 -12.44540913 0.0515218 0 0 Z " fill="#FFFFFF" transform="translate(532.984375,154.90625)"/>
<path d="M0 0 C3.53239023 1.50684968 5.7962166 3.55366612 8.49316406 6.26611328 C9.37377502 7.14687531 10.25438599 8.02763733 11.16168213 8.93508911 C12.11310431 9.89672351 13.06441603 10.8584672 14.015625 11.8203125 C14.99596129 12.80438107 15.97674168 13.78800742 16.95794678 14.77120972 C19.53354467 17.35442714 22.10307857 19.94359512 24.67138672 22.53405762 C27.29551067 25.1786762 29.92533771 27.8176101 32.5546875 30.45703125 C37.7087167 35.63248072 42.85635157 40.81423122 48 46 C46.49315032 49.53239023 44.44633388 51.7962166 41.73388672 54.49316406 C40.85312469 55.37377502 39.97236267 56.25438599 39.06491089 57.16168213 C38.10327649 58.11310431 37.1415328 59.06441603 36.1796875 60.015625 C35.19561893 60.99596129 34.21199258 61.97674168 33.22879028 62.95794678 C30.64557286 65.53354467 28.05640488 68.10307857 25.46594238 70.67138672 C22.8213238 73.29551067 20.1823899 75.92533771 17.54296875 78.5546875 C12.36751928 83.7087167 7.18576878 88.85635157 2 94 C0.35 93.34 -1.3 92.68 -3 92 C-3 91.34 -3 90.68 -3 90 C-3.80630859 89.68482422 -3.80630859 89.68482422 -4.62890625 89.36328125 C-7.90338288 87.48059205 -10.3317159 84.87786636 -12.9375 82.1875 C-13.44990234 81.66607422 -13.96230469 81.14464844 -14.49023438 80.60742188 C-15.51240932 79.56706338 -16.53284745 78.52499548 -17.55151367 77.48120117 C-20.69737848 74.26428531 -23.89422133 71.10041795 -27.11328125 67.95703125 C-28.17973223 66.90889967 -29.24613804 65.86072214 -30.3125 64.8125 C-30.86228516 64.27947266 -31.41207031 63.74644531 -31.97851562 63.19726562 C-33.35715678 61.83575044 -34.68339727 60.42159498 -36 59 C-36 58.34 -36 57.68 -36 57 C-36.88945312 56.61714844 -36.88945312 56.61714844 -37.796875 56.2265625 C-40.21224538 54.88183502 -41.51211706 53.50785633 -43.25 51.375 C-43.77078125 50.74335937 -44.2915625 50.11171875 -44.828125 49.4609375 C-45.21484375 48.97882813 -45.6015625 48.49671875 -46 48 C-44.56555161 44.72191718 -42.80370555 42.55995677 -40.2722168 40.04516602 C-39.12543709 38.8986129 -39.12543709 38.8986129 -37.95549011 37.72889709 C-37.12842056 36.91215012 -36.30135101 36.09540314 -35.44921875 35.25390625 C-34.59826126 34.40577866 -33.74730377 33.55765106 -32.87055969 32.68382263 C-30.14753066 29.97198595 -27.41764421 27.26717152 -24.6875 24.5625 C-22.85956764 22.74460144 -21.03208829 20.92624725 -19.20507812 19.10742188 C-15.84484427 15.76352008 -12.48205259 12.42223932 -9.1159668 9.08422852 C-6.06991237 6.0634618 -3.03000254 3.03686379 0 0 Z " fill="#FFFFFF" transform="translate(499,39)"/>
</svg>
