<svg xmlns="http://www.w3.org/2000/svg" width="444.1" height="116.2" viewBox="0 0 444.1 116.2">
  <g fill="#fff" fill-rule="evenodd" stroke="#fff" stroke-linecap="round" stroke-width=".945">
    <path d="m6.8 67.2.9.7a26 26 0 0 0-4.06 7.53A23 23 0 0 0 2.5 82.6q0 9.4 7.9 14.6 4.6 3.1 10.45 3.1a25 25 0 0 0 4.98-.47A19 19 0 0 0 31 98a16 16 0 0 0 8.55-10.86 23 23 0 0 0 .55-3.24q.1-.7.1-1.4 0-3.35-1.68-7.2l-.37-.8a20 20 0 0 0-3.11-4.62 27 27 0 0 0-3.54-3.28l-18-14.2a16 16 0 0 1-4.03-4.54Q7.6 44.6 7.6 40.5v-.01a19 19 0 0 1 1.21-6.83 17 17 0 0 1 3.49-5.52 15.6 15.6 0 0 1 9.3-4.8 22 22 0 0 1 3.4-.25q2.23 0 4.68.31a49 49 0 0 1 4.02.69h4l.2 12.3h-1a11 11 0 0 0-.57-3.44 9 9 0 0 0-2.88-4.11 12 12 0 0 0-5.8-2.55 16 16 0 0 0-2.6-.2 13 13 0 0 0-4.5.79 11 11 0 0 0-3.95 2.56q-3.4 3.35-3.4 8.6t4.4 8.75l18.5 14.6q11 8.7 11 21a20.4 20.4 0 0 1-6.42 14.96l-.88.84a21.4 21.4 0 0 1-9.8 4.96 32 32 0 0 1-7 .74 29 29 0 0 1-6.23-.64 23 23 0 0 1-5.17-1.76A19 19 0 0 1 1 89.44a25 25 0 0 1-.7-2.94 15 15 0 0 1-.18-1.29q-.07-.68-.1-1.47L0 82.45a12 12 0 0 1 .13-1.68q.26-1.79 1-4.2l.27-.82q1.21-3.69 4.38-7.4z" vector-effect="non-scaling-stroke"/>
    <path d="M123.6 93.5h1.2v1H103v-1h1.3q2.5 0 4.35-1.75t2.05-4.35v-26H72v26.1q0 12.55-5.46 17.7a12 12 0 0 1-1.34 1.1q-3.1 2.2-8 3.3l-.5-.9a14.5 14.5 0 0 0 6.4-6.86l.25-.54a22 22 0 0 0 1.22-3.89q.92-4.07.93-9.73V31.7a5.8 5.8 0 0 0-1.77-4.27l-.13-.13q-1.9-1.8-4.5-1.8h-1.2v-1h21.8v1h-1.3q-2.6 0-4.45 1.8T72 31.7v26.7h38.7V33.5q.1-12.8 5.7-17.8 3.4-3 9.2-4.3l.5.9a14.7 14.7 0 0 0-6.41 6.78l-.29.62q-2.18 4.95-2.2 13.62V87.2a6 6 0 0 0 1.8 4.4l.05.05a6.2 6.2 0 0 0 4.47 1.85z" vector-effect="non-scaling-stroke"/>
    <path d="M164.1 93.5h1.3v1h-21.9v-1h1.3q2.6 0 4.5-1.85a6 6 0 0 0 1.52-2.28 6 6 0 0 0 .38-2.17v-60l-10.7.6q-10.1.6-10.1 7.3 0 2.7 1.75 4.6a6 6 0 0 0 2.07 1.4q.86.35 1.93.53a14 14 0 0 0 1.55.17v.6q-1.4.3-2.8.3a9 9 0 0 1-2.86-.45q-2.32-.8-3.73-3.03l-.01-.02q-1.3-2-1.3-4.4 0-8.5 12.9-9.9l7.55-.5 2.4-.15q9.14-.6 14.7-1.6l.85-.15.2 1q-4.3.7-6.1 2.9-1.52 1.86-1.76 4.92a15 15 0 0 0-.04 1.18v54.7q.1 2.6 1.95 4.45a6 6 0 0 0 4.37 1.85z" vector-effect="non-scaling-stroke"/>
    <path d="M268.1 0v1a27 27 0 0 0-7.64 1.42l-1.16.43q-3.66 1.47-6.17 3.35l-.58.45a23 23 0 0 0-2.53 2.41q-1.17 1.28-2.3 2.84l-.32.45a93 93 0 0 0-1.58 2.32q-.7 1.04-1.26 1.98a40 40 0 0 0-1.01 1.75q-1.28 2.38-2.97 6.02l-.18.38-27.8 60.8-1.26 2.83q-1.8 4.21-2.28 6.29a6 6 0 0 0-.16 1.18h-.9l-28.1-64.1a13 13 0 0 0-1.37-2.4 9 9 0 0 0-2.48-2.35q-2.45-1.55-4.95-1.55h-.8v-1h22.5v1h-.9q-3 0-4 2.8-.19.56-.2 1.3v.1a3 3 0 0 0 .06.6q.11.61.44 1.4l20.9 52.4 24.8-59.3a63 63 0 0 1 4.41-8.62q4.55-7.34 10.39-11.28a25 25 0 0 1 4.46-2.37 32 32 0 0 1 3.64-1.23 50 50 0 0 1 2.76-.69q2.6-.56 4.48-.6l.36-.01z" vector-effect="non-scaling-stroke"/>
    <path d="M279.2 93.5h1.3v1h-21.9v-1h1.3q2.6 0 4.5-1.85a6 6 0 0 0 1.52-2.28 6 6 0 0 0 .38-2.17v-60l-10.7.6q-10.1.6-10.1 7.3 0 2.7 1.75 4.6a6 6 0 0 0 2.07 1.4q.86.35 1.93.53a14 14 0 0 0 1.55.17v.6q-1.4.3-2.8.3a9 9 0 0 1-2.86-.45q-2.32-.8-3.73-3.03l-.01-.02q-1.3-2-1.3-4.4 0-8.5 12.9-9.9l7.55-.5 2.4-.15q9.14-.6 14.7-1.6l.85-.15.2 1q-4.3.7-6.1 2.9-1.52 1.86-1.76 4.92a15 15 0 0 0-.04 1.18v54.7q.1 2.6 1.95 4.45a6 6 0 0 0 4.37 1.85z" vector-effect="non-scaling-stroke"/>
    <path d="M379.2 110.5v1q-3.5.92-6.34 1.07l-1.11.03a45 45 0 0 1-2.7-.08q-1.34-.08-2.51-.24l-.54-.08a22 22 0 0 1-2.75-.64 29 29 0 0 1-2.6-.91q-2.85-1.15-5.35-2.65a32 32 0 0 1-3.12-2.15 39 39 0 0 1-1.88-1.55q-4.6-3.7-8.35-8l-2.14-2.43q-4.12-4.65-12.31-13.72l-4.34-4.8-8.34-9.25-1.52-1.7q-3.2-3.57-5.07-4.04l-.33-.06v-1l2.35-.01q3.88-.05 5.4-.24 1.95-.25 4.15-.9a14 14 0 0 0 1.9-.7 10 10 0 0 0 1.8-1.05 12.3 12.3 0 0 0 5.38-7.82 21 21 0 0 0 .52-4.78 27 27 0 0 0-.4-4.77q-.49-2.68-1.56-4.82a14 14 0 0 0-1.29-2.11 10.7 10.7 0 0 0-7.72-4.4 15 15 0 0 0-1.43-.1h-12.4v59.6a6 6 0 0 0 1.73 4.28l.12.12a6 6 0 0 0 4.42 1.9h1.33l.1 1h-21.9v-1h1.3q2.5 0 4.4-1.8a6.2 6.2 0 0 0 2-4.4h0V31.8q-.1-2.6-1.95-4.45a6 6 0 0 0-4.37-1.85h-1.38v-1h27a25 25 0 0 1 6.12.7 18 18 0 0 1 8.03 4.25 16.4 16.4 0 0 1 5.22 10.63 23 23 0 0 1 .13 2.47 23 23 0 0 1-1.38 8 21 21 0 0 1-3.52 6q-4.9 5.85-12 5.85h-.1l3.15 3.38q2.13 2.32 4.55 5.02l6.05 6.66q11.71 12.86 15.84 17.03l.31.31a191 191 0 0 0 3.51 3.43q2.8 2.65 5.14 4.62a56 56 0 0 0 2.48 1.97q1.24.93 2.37 1.64a24 24 0 0 0 1.8 1.04q5.9 3.2 11.7 3.2 1.2 0 2.4-.2Z" vector-effect="non-scaling-stroke"/>
    <path d="m361.7 22.1-.3-1a37 37 0 0 1 6.57-2.07 29 29 0 0 1 5.93-.63q5 0 10.3 3.7 2.9 2 6.5 7.8 2.4 4 6.1 14.5L409 79q2.9 8.03 5.89 13.79a61 61 0 0 0 2.66 4.66 91 91 0 0 0 2.65 3.95q2.64 3.71 4.97 6.03l.33.32a25 25 0 0 0 3.44 2.78 19 19 0 0 0 4.06 2.07 33 33 0 0 0 2.3.74q2.32.64 4.03.66h.12q2.38 0 4.28-.35l.27-.05.1 1a31 31 0 0 1-6.49 1.44 27 27 0 0 1-2.91.16q-4.6 0-9.2-2.35a31 31 0 0 1-6.3-4.33 37 37 0 0 1-2.3-2.22 46 46 0 0 1-6.08-7.8q-4.77-7.58-8.52-18.7l-3.9-11.4H371l-6.9 17.8a6 6 0 0 0-.46 1.7 6 6 0 0 0-.04.7 3 3 0 0 0 .22 1.14q.17.43.45.87l.38.54q1 1.29 3.06 1.35h.99v1h-20.1v-1h.9q2.4 0 4.7-1.45t3.8-4.35l24.8-59.4a21 21 0 0 0-3.82-4.22 14.6 14.6 0 0 0-9.58-3.48 20 20 0 0 0-4.2.47 27 27 0 0 0-3.5 1.03Zm23.6 10.5-13.2 33.8h25.3l-7.9-23.3a146 146 0 0 0-1.4-3.9q-1.5-3.99-2.8-6.6Z" vector-effect="non-scaling-stroke"/>
  </g>
</svg>
